<svg width="512" height="512" viewBox="0 0 512 512" preserveAspectRatio="xMidYMid meet" xmlns="http://www.w3.org/2000/svg"><path d="m255.4 42.2c-76.9 0-119.4 65.3-119.4 129h238.7c.1-63.8-47.9-129-119.3-129z" fill="#cfcfcf"/><path d="m255.4 66.4c-62.5 0-97 53-97 104.8l97 11 97-11c0-51.8-39-104.8-97-104.8z" fill="#585e62"/><path d="m44.8 378.5c-5 0-9.1-4.1-9.1-9.1 0-4.6 3.5-8.6 8.1-9.1 10.7-1.2 18.4-10.8 17.2-21.5s-10.8-18.4-21.5-17.2-18.4 10.8-17.2 21.5c.3 2.5 1.1 5 2.3 7.3 2.3 4.5.5 10-4 12.2-4.3 2.1-9.4.6-11.9-3.4-10.1-18.2-3.4-41.1 14.8-51.2s41.1-3.4 51.2 14.8 3.4 41.2-14.8 51.2c-4.3 2.4-9.1 3.9-14 4.5-.4 0-.7 0-1.1 0z" fill="#585e62"/><path d="m82.6 258 2.4 1.2c11.1 5.7 15.4 19.2 9.8 30.2l-9.4 18.4c-5.7 11.1-19.2 15.4-30.2 9.8l-2.4-1.2c-11.1-5.7-15.4-19.2-9.8-30.2l9.4-18.4c5.6-11 19.2-15.4 30.2-9.8z" fill="#cfcfcf"/><path d="m86.6 221.3 25.4 13-19.6 38.3c-3.6 7-12.2 9.8-19.2 6.2-7-3.6-9.8-12.2-6.2-19.2z" fill="#585e62"/><circle cx="105.2" cy="218.4" fill="#cfcfcf" r="34.1"/><path d="m121.4 188.5c-13.7-7.6-30.8-4.8-41.5 6.7 18.8.9 33.4 16.8 32.5 35.7-.4 8.1-3.6 15.8-9.1 21.7 18.8.8 34.8-13.7 35.6-32.6.7-13-6.1-25.2-17.5-31.5z" fill="#b1b1b1"/><path d="m467.2 378.5c-.3 0-.7 0-1-.1-20.7-2.3-35.5-21-33.2-41.6 2.3-20.7 21-35.5 41.6-33.2 20.7 2.3 35.5 21 33.2 41.6-.6 4.9-2.1 9.7-4.5 14-2.3 4.5-7.7 6.3-12.2 4s-6.3-7.7-4-12.2c.1-.2.2-.4.3-.6 5.2-9.4 1.8-21.3-7.6-26.5s-21.3-1.8-26.5 7.6-1.8 21.3 7.6 26.5c2.2 1.2 4.7 2 7.2 2.3 5 .5 8.6 5 8 10-.4 4.8-4.3 8.3-8.9 8.2z" fill="#585e62"/><path d="m459.3 316.4-2.4 1.2c-11.1 5.7-24.6 1.3-30.2-9.8l-9.4-18.4c-5.7-11.1-1.3-24.6 9.8-30.2l2.4-1.2c11.1-5.7 24.6-1.3 30.2 9.8l9.4 18.4c5.6 11 1.2 24.6-9.8 30.2z" fill="#cfcfcf"/><path d="m438.8 278.9c-7 3.6-15.6.8-19.2-6.2l-19.6-38.3 25.4-13 19.6 38.3c3.6 7 .8 15.6-6.2 19.2z" fill="#585e62"/><circle cx="406.8" cy="218.4" fill="#cfcfcf" r="34.1"/><path d="m390.6 188.5c13.7-7.6 30.8-4.8 41.5 6.7-18.8.9-33.4 16.8-32.5 35.7.4 8.1 3.6 15.7 9.1 21.7-18.8.9-34.8-13.7-35.7-32.5-.6-13.1 6.2-25.3 17.6-31.6z" fill="#b1b1b1"/><path d="m117.2 469.8c-16.7 0-30.5-18.1-34.3-45.1-2.1-14.5-1-29.7 2.9-42.8 4.3-14.1 11.6-24.4 20.6-29 3.3-1.7 7-2.6 10.8-2.7h47.1v119.5z" fill="#585e62"/><path d="m163.8 469.8c-9.7 0-17.7-18.1-19.9-45.1-1.2-14.5-.6-29.7 1.7-42.8 2.5-14.1 6.7-24.4 11.9-29 2-1.8 4.1-2.7 6.2-2.7 2.2 0 4.2.9 6.3 2.6l22.6 19.9c7.9 7 10.6 29.1 9.2 46.4-1.1 13.3-4.5 23.7-9.2 27.9l-22.6 19.9c-1.9 2-4 2.9-6.2 2.9z" fill="#585e62"/><path d="m168 360.1 22.6 19.9c5.1 4.5 8.1 21.6 6.7 38.2-.9 11-3.6 19.1-6.7 21.9l-22.6 19.9c-8.5 7.5-17.2-8.8-19.5-36.4s2.7-56 11.2-63.5c2.8-2.4 5.7-2.3 8.3 0z" fill="#35393b"/><path d="m390.9 469.8c16.7 0 30.5-18.1 34.3-45.1 2.1-14.5 1-29.7-2.9-42.8-4.3-14.1-11.6-24.4-20.6-29-3.3-1.7-7-2.6-10.8-2.7h-47.1v119.5z" fill="#585e62"/><path d="m344.3 469.8c9.7 0 17.7-18.1 19.9-45.1 1.2-14.5.6-29.7-1.7-42.8-2.5-14.1-6.7-24.4-11.9-29-2-1.8-4.1-2.7-6.2-2.7s-4.2.9-6.3 2.6l-22.6 19.9c-7.9 7-10.6 29.1-9.2 46.4 1.1 13.3 4.5 23.7 9.2 27.9l22.6 19.9c1.9 2 4 2.9 6.2 2.9z" fill="#585e62"/><path d="m340.1 360.1-22.6 19.9c-5.1 4.5-8.1 21.6-6.7 38.1.9 11 3.6 19.1 6.7 21.9l22.6 19.9c8.5 7.5 17.2-8.8 19.5-36.4s-2.7-56-11.2-63.5c-2.8-2.3-5.7-2.2-8.3.1z" fill="#35393b"/><path d="m390 247.5c-2-6.8-2.1-13.9-.3-20.7 6.7-24.2 2.3-50.8 2.3-50.8-84.2-26.3-136.5-.2-136.5-.2s-52.2-26.2-136.5-.2c0 0-4.5 26.7 2.1 50.9 1.8 6.8 1.7 14-.3 20.7-2.3 8-4.9 20.2-4.9 35.8-.2 113.3 139.2 148.3 139.2 148.3s139.4-34.6 139.6-147.9c.1-15.7-2.4-27.9-4.7-35.9z" fill="#cfcfcf"/><path d="m255.2 410.1c-23.1-7.2-119-42.4-118.9-127.1 0-13.5 2.2-23.8 4.1-30.2 3.1-10.4 3.2-21.4.4-31.8-2.8-10.3-3.1-21.4-2.8-29.7 18.4-4.7 36.5-7 53.9-7 34.4.1 54.5 9.6 54.7 9.6l9.3 4.7 8.8-4.7c.1 0 20.2-9.4 54.6-9.4 17.4 0 35.4 2.4 53.8 7.1.3 8.3 0 19.4-2.9 29.7-2.8 10.4-2.7 21.5.3 31.8 1.8 6.3 4 16.7 4 30.2-.2 85.1-96.1 119.7-119.3 126.8z" fill="#49b04a"/><path d="m281.5 259.9c0-14.4-11.6-26.2-26.1-26.2s-26.2 11.6-26.2 26.1c0 12.2 8.4 22.8 20.4 25.5l-14.7 61.7 20.3 5.8 20.3-5.8-14.5-61.7c12-2.6 20.5-13.1 20.5-25.4z" fill="#35393b"/><g fill="#49b04a"><path d="m210.9 101.8c-15.2 0-27.6 12.3-27.6 27.6h55.2c0-15.2-12.3-27.6-27.6-27.6z"/><path d="m296.2 101.8c-15.2 0-27.6 12.3-27.6 27.6h55.2c0-15.2-12.4-27.6-27.6-27.6z"/><circle cx="223.8" cy="146.5" r="5.2"/><circle cx="244.4" cy="146.5" r="5.2"/><circle cx="265" cy="146.5" r="5.2"/><circle cx="285.6" cy="146.5" r="5.2"/></g></svg>