<?xml version="1.0" encoding="UTF-8" standalone="no"?>
<svg
   width="15px"
   height="13px"
   viewBox="0 0 15 13"
   version="1.1"
   id="svg6510"
   sodipodi:docname="cryptomator-icon-16-colored (Kopie).svg"
   inkscape:version="1.2.2 (b0a8486541, 2022-12-01)"
   xmlns:inkscape="http://www.inkscape.org/namespaces/inkscape"
   xmlns:sodipodi="http://sodipodi.sourceforge.net/DTD/sodipodi-0.dtd"
   xmlns="http://www.w3.org/2000/svg"
   xmlns:svg="http://www.w3.org/2000/svg">
  <defs
     id="defs6514" />
  <sodipodi:namedview
     id="namedview6512"
     pagecolor="#ffffff"
     bordercolor="#000000"
     borderopacity="0.25"
     inkscape:showpageshadow="2"
     inkscape:pageopacity="0.0"
     inkscape:pagecheckerboard="0"
     inkscape:deskcolor="#d1d1d1"
     showgrid="false"
     inkscape:zoom="36.307692"
     inkscape:cx="7.4915255"
     inkscape:cy="6.5000001"
     inkscape:window-width="1440"
     inkscape:window-height="831"
     inkscape:window-x="0"
     inkscape:window-y="0"
     inkscape:window-maximized="1"
     inkscape:current-layer="svg6510" />
  <path
     style="fill:#f2f2f2;fill-opacity:1;fill-rule:nonzero;stroke:none"
     d="M 7.480469,0 C 5.191406,0 3.929688,1.984375 3.929688,3.921875 h 7.105468 C 11.035156,1.984375 9.609375,0 7.480469,0 Z m 0,0"
     id="path6455" />
  <path
     id="path6457"
     style="fill:#5e5e5e;fill-opacity:1;fill-rule:nonzero;stroke:none"
     d="M 7.4804688 0.73828125 C 5.6211046 0.73828125 4.59375 2.3476656 4.59375 3.921875 L 7.4804688 4.2539062 L 10.367188 3.921875 C 10.367188 2.3476656 9.210927 0.73828125 7.4804688 0.73828125 z M 6.1601562 1.8125 C 6.6132808 1.8125 6.9804688 2.1875002 6.9804688 2.6523438 L 5.3359375 2.6523438 C 5.3359375 2.1875002 5.7031257 1.8125 6.1601562 1.8125 z M 8.6953125 1.8125 C 9.1484355 1.8125 9.515625 2.1875022 9.515625 2.6523438 L 7.875 2.6523438 C 7.875 2.1875022 8.2421915 1.8125 8.6953125 1.8125 z M 6.5273438 3.015625 C 6.5325793 3.015089 6.5375976 3.015625 6.5429688 3.015625 C 6.6289056 3.015625 6.6953125 3.0859382 6.6953125 3.171875 C 6.6953125 3.2617188 6.6289056 3.3320312 6.5429688 3.3320312 C 6.4570308 3.3320312 6.3867187 3.2617188 6.3867188 3.171875 C 6.3867188 3.0913092 6.4488084 3.0236645 6.5273438 3.015625 z M 7.1367188 3.015625 C 7.1419256 3.015089 7.1469726 3.015625 7.1523438 3.015625 C 7.2421875 3.015625 7.3085937 3.0859383 7.3085938 3.171875 C 7.3085938 3.2617187 7.2421875 3.3320313 7.1523438 3.3320312 C 7.0664058 3.3320312 7 3.2617187 7 3.171875 C 7 3.0913093 7.0586125 3.0236645 7.1367188 3.015625 z M 7.75 3.015625 C 7.7552356 3.015089 7.7602539 3.015625 7.765625 3.015625 C 7.8515616 3.015625 7.921875 3.0859384 7.921875 3.171875 C 7.921875 3.2617186 7.8515616 3.3320313 7.765625 3.3320312 C 7.6796884 3.3320312 7.609375 3.2617186 7.609375 3.171875 C 7.609375 3.0913094 7.6714657 3.0236645 7.75 3.015625 z M 8.3632812 3.015625 C 8.3685169 3.015089 8.3735356 3.015625 8.3789062 3.015625 C 8.4648442 3.015625 8.5351562 3.0859385 8.5351562 3.171875 C 8.5351562 3.2617185 8.4648442 3.3320313 8.3789062 3.3320312 C 8.2929697 3.3320312 8.2226562 3.2617185 8.2226562 3.171875 C 8.2226562 3.0913095 8.284747 3.0236645 8.3632812 3.015625 z " />
  <path
     style="fill:#f2f2f2;fill-opacity:1;fill-rule:nonzero;stroke:none"
     d="M 1.214844,10.222656 C 1.070312,10.226562 0.953125,10.109375 0.945312,9.964844 0.9375,9.816406 1.042969,9.6875 1.183594,9.671875 1.4375,9.644531 1.644531,9.449219 1.691406,9.191406 1.738281,8.9375 1.613281,8.679688 1.386719,8.558594 1.160156,8.441406 0.882812,8.484375 0.707031,8.671875 0.527344,8.859375 0.492188,9.144531 0.613281,9.371094 0.679688,9.503906 0.628906,9.667969 0.503906,9.738281 0.375,9.808594 0.214844,9.765625 0.140625,9.636719 -0.0976562,9.195312 -0.0273438,8.648438 0.316406,8.289062 0.664062,7.925781 1.199219,7.835938 1.636719,8.070312 c 0.4375,0.230469 0.675781,0.726563 0.585937,1.222657 -0.089844,0.496093 -0.484375,0.875 -0.976562,0.929687 -0.00781,0 -0.019532,0 -0.03125,0 z m 0,0"
     id="path6459" />
  <path
     style="fill:#f2f2f2;fill-opacity:1;fill-rule:nonzero;stroke:none"
     d="M 2.339844,6.5625 2.410156,6.597656 C 2.738281,6.769531 2.867188,7.183594 2.699219,7.519531 L 2.421875,8.074219 C 2.253906,8.410156 1.851562,8.542969 1.519531,8.371094 L 1.449219,8.335938 C 1.121094,8.164062 0.992188,7.753906 1.160156,7.417969 L 1.4375,6.859375 C 1.605469,6.523438 2.011719,6.390625 2.339844,6.5625 Z m 0,0"
     id="path6461" />
  <path
     style="fill:#5e5e5e;fill-opacity:1;fill-rule:nonzero;stroke:none"
     d="M 2.457031,5.445312 3.214844,5.839844 2.632812,7.003906 C 2.523438,7.21875 2.269531,7.304688 2.058594,7.195312 1.851562,7.085938 1.769531,6.824219 1.875,6.609375 Z m 0,0"
     id="path6463" />
  <path
     style="fill:#f2f2f2;fill-opacity:1;fill-rule:nonzero;stroke:none"
     d="m 4.027344,5.359375 c 0,0.570313 -0.453125,1.035156 -1.015625,1.035156 -0.558594,0 -1.015625,-0.464843 -1.015625,-1.035156 0,-0.574219 0.457031,-1.039063 1.015625,-1.039063 0.5625,0 1.015625,0.464844 1.015625,1.039063 z m 0,0"
     id="path6465" />
  <path
     style="fill:#f2f2f2;fill-opacity:1;fill-rule:nonzero;stroke:none"
     d="M 3.492188,4.449219 C 3.085938,4.21875 2.574219,4.304688 2.257812,4.652344 2.652344,4.671875 3.003906,4.921875 3.152344,5.296875 3.300781,5.671875 3.226562,6.097656 2.957031,6.394531 3.429688,6.417969 3.851562,6.105469 3.980469,5.640625 4.109375,5.175781 3.90625,4.683594 3.492188,4.449219 Z m 0,0"
     id="path6467" />
  <path
     style="fill:#f2f2f2;fill-opacity:1;fill-rule:nonzero;stroke:none"
     d="m 13.785156,10.222656 c -0.01172,0 -0.01953,0 -0.03125,0 -0.492187,-0.05469 -0.886718,-0.433594 -0.976562,-0.929687 -0.08984,-0.496094 0.148437,-0.992188 0.585937,-1.222657 0.441407,-0.234374 0.976563,-0.144531 1.320313,0.214844 0.34375,0.363282 0.414062,0.910156 0.175781,1.351563 -0.04297,0.09375 -0.132813,0.148437 -0.230469,0.152343 -0.101562,0.00391 -0.195312,-0.046874 -0.242187,-0.136718 -0.05078,-0.085938 -0.05078,-0.195313 0,-0.28125 0.125,-0.226563 0.08594,-0.511719 -0.08984,-0.699219 -0.179687,-0.1875 -0.457031,-0.230469 -0.683594,-0.113281 -0.226562,0.121094 -0.351562,0.378906 -0.304687,0.632812 0.04687,0.257813 0.253906,0.453125 0.507812,0.480469 0.140625,0.015625 0.246094,0.144531 0.238282,0.292969 -0.0078,0.144531 -0.125,0.261718 -0.269532,0.257812 z m 0,0"
     id="path6469" />
  <path
     style="fill:#f2f2f2;fill-opacity:1;fill-rule:nonzero;stroke:none"
     d="M 13.550781,8.335938 13.480469,8.375 C 13.148438,8.546875 12.746094,8.414062 12.578125,8.078125 L 12.300781,7.519531 c -0.171875,-0.335937 -0.03906,-0.75 0.289063,-0.921875 L 12.660156,6.5625 C 12.988281,6.390625 13.390625,6.523438 13.5625,6.859375 l 0.277344,0.558594 c 0.167968,0.335937 0.03906,0.746093 -0.289063,0.917969 z m 0,0"
     id="path6471" />
  <path
     style="fill:#5e5e5e;fill-opacity:1;fill-rule:nonzero;stroke:none"
     d="M 12.941406,7.195312 C 12.730469,7.304688 12.476562,7.21875 12.367188,7.007812 L 11.785156,5.84375 12.542969,5.445312 13.125,6.609375 c 0.105469,0.214844 0.02344,0.476563 -0.183594,0.585937 z m 0,0"
     id="path6473" />
  <path
     style="fill:#f2f2f2;fill-opacity:1;fill-rule:nonzero;stroke:none"
     d="m 13.003906,5.359375 c 0,0.570313 -0.457031,1.035156 -1.015625,1.035156 -0.5625,0 -1.015625,-0.464843 -1.015625,-1.035156 0,-0.574219 0.453125,-1.039063 1.015625,-1.039063 0.558594,0 1.015625,0.464844 1.015625,1.039063 z m 0,0"
     id="path6475" />
  <path
     style="fill:#f2f2f2;fill-opacity:1;fill-rule:nonzero;stroke:none"
     d="m 11.507812,4.449219 c 0.40625,-0.230469 0.914063,-0.144531 1.234376,0.203125 -0.398438,0.019531 -0.746094,0.269531 -0.894532,0.644531 -0.148437,0.375 -0.07422,0.800781 0.195313,1.097656 C 11.570312,6.417969 11.148438,6.105469 11.019531,5.640625 10.890625,5.175781 11.09375,4.683594 11.507812,4.449219 Z m 0,0"
     id="path6477" />
  <path
     style="fill:#f2f2f2;fill-opacity:1;fill-rule:nonzero;stroke:none"
     d="M 3.367188,13 C 2.871094,13 2.460938,12.449219 2.34375,11.628906 2.285156,11.1875 2.316406,10.726562 2.433594,10.328125 2.5625,9.898438 2.777344,9.585938 3.046875,9.449219 3.144531,9.394531 3.253906,9.367188 3.367188,9.367188 H 4.769531 V 13 Z m 0,0"
     id="path6479" />
  <path
     style="fill:#f2f2f2;fill-opacity:1;fill-rule:nonzero;stroke:none"
     d="M 4.757812,13 C 4.46875,13 4.230469,12.449219 4.164062,11.628906 4.128906,11.1875 4.148438,10.726562 4.214844,10.328125 4.289062,9.898438 4.414062,9.585938 4.570312,9.449219 4.628906,9.394531 4.691406,9.367188 4.757812,9.367188 c 0.0625,0 0.125,0.027343 0.183594,0.078124 l 0.675782,0.609376 c 0.234374,0.210937 0.316406,0.882812 0.273437,1.410156 -0.035156,0.402344 -0.136719,0.71875 -0.273437,0.84375 L 4.945312,12.914062 C 4.882812,12.972656 4.820312,13 4.757812,13 Z m 0,0"
     id="path6481" />
  <path
     style="fill:#5e5e5e;fill-opacity:1;fill-rule:nonzero;stroke:none"
     d="m 4.878906,9.664062 0.675782,0.605469 c 0.148437,0.136719 0.238281,0.65625 0.199218,1.160157 -0.027344,0.335937 -0.105468,0.578124 -0.199218,0.664062 L 4.882812,12.699219 C 4.628906,12.925781 4.371094,12.433594 4.300781,11.59375 4.234375,10.753906 4.382812,9.890625 4.632812,9.664062 c 0.085938,-0.074218 0.171876,-0.070312 0.246094,0 z m 0,0"
     id="path6483" />
  <path
     style="fill:#f2f2f2;fill-opacity:1;fill-rule:nonzero;stroke:none"
     d="m 11.515625,13 c 0.496094,0 0.90625,-0.550781 1.023437,-1.371094 0.0625,-0.441406 0.03125,-0.902344 -0.08984,-1.300781 -0.125,-0.429687 -0.34375,-0.742187 -0.613281,-0.878906 C 11.738281,9.394531 11.628906,9.367188 11.515625,9.367188 H 10.113281 V 13 Z m 0,0"
     id="path6485" />
  <path
     style="fill:#f2f2f2;fill-opacity:1;fill-rule:nonzero;stroke:none"
     d="m 10.125,13 c 0.289062,0 0.527344,-0.550781 0.59375,-1.371094 C 10.75391,11.1875 10.73828,10.726562 10.66797,10.328125 10.59375,9.898438 10.46875,9.585938 10.3125,9.449219 10.253906,9.394531 10.191406,9.367188 10.125,9.367188 10.0625,9.367188 10,9.394531 9.941406,9.445312 L 9.269531,10.054688 C 9.03125,10.265625 8.949219,10.9375 8.992188,11.464844 c 0.035156,0.402344 0.136718,0.71875 0.273437,0.84375 l 0.675781,0.605468 C 10,12.972656 10.0625,13 10.125,13 Z m 0,0"
     id="path6487" />
  <path
     style="fill:#5e5e5e;fill-opacity:1;fill-rule:nonzero;stroke:none"
     d="m 10.003906,9.664062 -0.671875,0.605469 c -0.152343,0.136719 -0.242187,0.65625 -0.203125,1.160157 0.027344,0.335937 0.109375,0.578124 0.203125,0.664062 l 0.671875,0.605469 c 0.25,0.226562 0.511719,-0.269531 0.578125,-1.105469 C 10.652344,10.753906 10.5,9.890625 10.25,9.664062 c -0.08594,-0.074218 -0.167969,-0.070312 -0.246094,0 z m 0,0"
     id="path6489" />
  <path
     id="path6491"
     style="fill:#f2f2f2;fill-opacity:1;fill-rule:nonzero;stroke:none"
     d="M 5.6484375 3.703125 C 5.0366684 3.6969285 4.2878411 3.7821061 3.4257812 4.0546875 C 3.4257812 4.0546875 3.2929694 4.863282 3.4882812 5.5976562 C 3.5429692 5.804688 3.5390597 6.023438 3.4804688 6.2304688 C 3.4101558 6.4726555 3.3359382 6.8437507 3.3320312 7.3164062 C 3.3281213 10.761716 7.4765625 11.824219 7.4765625 11.824219 C 7.4765625 11.824219 11.625 10.773435 11.628906 7.3320312 C 11.628906 6.8554697 11.554686 6.4843743 11.488281 6.2421875 C 11.429691 6.0351557 11.425769 5.8164058 11.480469 5.609375 C 11.679688 4.8750007 11.546875 4.0664063 11.546875 4.0664062 C 9.0429715 3.2656261 7.484375 4.0585937 7.484375 4.0585938 C 7.484375 4.0585938 6.8163603 3.7149546 5.6484375 3.703125 z M 7.4628906 5.8222656 C 7.487854 5.8217077 7.5136719 5.8222656 7.5390625 5.8242188 C 7.9453121 5.8593747 8.2617195 6.2031252 8.2578125 6.6210938 C 8.2578125 6.9921874 8.0078114 7.3125003 7.6523438 7.3945312 L 8.0820312 9.265625 L 7.4765625 9.4414062 L 6.8710938 9.265625 L 7.3085938 7.3945312 C 6.9140621 7.3007813 6.6523436 6.9101556 6.7109375 6.5 C 6.7695312 6.1154791 7.0884404 5.8306341 7.4628906 5.8222656 z " />
</svg>
