<?xml version="1.0" encoding="UTF-8"?>
<svg xmlns="http://www.w3.org/2000/svg" xmlns:xlink="http://www.w3.org/1999/xlink" width="15px" height="13px" viewBox="0 0 15 13" version="1.1">
<g id="surface1">
<path style=" stroke:none;fill-rule:nonzero;fill:rgb(81.176471%,81.176471%,81.176471%);fill-opacity:1;" d="M 7.480469 0 C 5.191406 0 3.929688 1.984375 3.929688 3.921875 L 11.035156 3.921875 C 11.035156 1.984375 9.609375 0 7.480469 0 Z M 7.480469 0 "/>
<path style=" stroke:none;fill-rule:nonzero;fill:rgb(34.509804%,36.862745%,38.431373%);fill-opacity:1;" d="M 7.480469 0.738281 C 5.621094 0.738281 4.59375 2.347656 4.59375 3.921875 L 7.480469 4.253906 L 10.367188 3.921875 C 10.367188 2.347656 9.210938 0.738281 7.480469 0.738281 Z M 7.480469 0.738281 "/>
<path style=" stroke:none;fill-rule:nonzero;fill:rgb(34.509804%,36.862745%,38.431373%);fill-opacity:1;" d="M 1.214844 10.222656 C 1.070312 10.226562 0.953125 10.109375 0.945312 9.964844 C 0.9375 9.816406 1.042969 9.6875 1.183594 9.671875 C 1.4375 9.644531 1.644531 9.449219 1.691406 9.191406 C 1.738281 8.9375 1.613281 8.679688 1.386719 8.558594 C 1.160156 8.441406 0.882812 8.484375 0.707031 8.671875 C 0.527344 8.859375 0.492188 9.144531 0.613281 9.371094 C 0.679688 9.503906 0.628906 9.667969 0.503906 9.738281 C 0.375 9.808594 0.214844 9.765625 0.140625 9.636719 C -0.0976562 9.195312 -0.0273438 8.648438 0.316406 8.289062 C 0.664062 7.925781 1.199219 7.835938 1.636719 8.070312 C 2.074219 8.300781 2.3125 8.796875 2.222656 9.292969 C 2.132812 9.789062 1.738281 10.167969 1.246094 10.222656 C 1.238281 10.222656 1.226562 10.222656 1.214844 10.222656 Z M 1.214844 10.222656 "/>
<path style=" stroke:none;fill-rule:nonzero;fill:rgb(81.176471%,81.176471%,81.176471%);fill-opacity:1;" d="M 2.339844 6.5625 L 2.410156 6.597656 C 2.738281 6.769531 2.867188 7.183594 2.699219 7.519531 L 2.421875 8.074219 C 2.253906 8.410156 1.851562 8.542969 1.519531 8.371094 L 1.449219 8.335938 C 1.121094 8.164062 0.992188 7.753906 1.160156 7.417969 L 1.4375 6.859375 C 1.605469 6.523438 2.011719 6.390625 2.339844 6.5625 Z M 2.339844 6.5625 "/>
<path style=" stroke:none;fill-rule:nonzero;fill:rgb(34.509804%,36.862745%,38.431373%);fill-opacity:1;" d="M 2.457031 5.445312 L 3.214844 5.839844 L 2.632812 7.003906 C 2.523438 7.21875 2.269531 7.304688 2.058594 7.195312 C 1.851562 7.085938 1.769531 6.824219 1.875 6.609375 Z M 2.457031 5.445312 "/>
<path style=" stroke:none;fill-rule:nonzero;fill:rgb(81.176471%,81.176471%,81.176471%);fill-opacity:1;" d="M 4.027344 5.359375 C 4.027344 5.929688 3.574219 6.394531 3.011719 6.394531 C 2.453125 6.394531 1.996094 5.929688 1.996094 5.359375 C 1.996094 4.785156 2.453125 4.320312 3.011719 4.320312 C 3.574219 4.320312 4.027344 4.785156 4.027344 5.359375 Z M 4.027344 5.359375 "/>
<path style=" stroke:none;fill-rule:nonzero;fill:rgb(69.411765%,69.411765%,69.411765%);fill-opacity:1;" d="M 3.492188 4.449219 C 3.085938 4.21875 2.574219 4.304688 2.257812 4.652344 C 2.652344 4.671875 3.003906 4.921875 3.152344 5.296875 C 3.300781 5.671875 3.226562 6.097656 2.957031 6.394531 C 3.429688 6.417969 3.851562 6.105469 3.980469 5.640625 C 4.109375 5.175781 3.90625 4.683594 3.492188 4.449219 Z M 3.492188 4.449219 "/>
<path style=" stroke:none;fill-rule:nonzero;fill:rgb(34.509804%,36.862745%,38.431373%);fill-opacity:1;" d="M 13.785156 10.222656 C 13.773438 10.222656 13.765625 10.222656 13.753906 10.222656 C 13.261719 10.167969 12.867188 9.789062 12.777344 9.292969 C 12.6875 8.796875 12.925781 8.300781 13.363281 8.070312 C 13.804688 7.835938 14.339844 7.925781 14.683594 8.285156 C 15.027344 8.648438 15.097656 9.195312 14.859375 9.636719 C 14.816406 9.730469 14.726562 9.785156 14.628906 9.789062 C 14.527344 9.792969 14.433594 9.742188 14.386719 9.652344 C 14.335938 9.566406 14.335938 9.457031 14.386719 9.371094 C 14.511719 9.144531 14.472656 8.859375 14.296875 8.671875 C 14.117188 8.484375 13.839844 8.441406 13.613281 8.558594 C 13.386719 8.679688 13.261719 8.9375 13.308594 9.191406 C 13.355469 9.449219 13.5625 9.644531 13.816406 9.671875 C 13.957031 9.6875 14.0625 9.816406 14.054688 9.964844 C 14.046875 10.109375 13.929688 10.226562 13.785156 10.222656 Z M 13.785156 10.222656 "/>
<path style=" stroke:none;fill-rule:nonzero;fill:rgb(81.176471%,81.176471%,81.176471%);fill-opacity:1;" d="M 13.550781 8.335938 L 13.480469 8.375 C 13.148438 8.546875 12.746094 8.414062 12.578125 8.078125 L 12.300781 7.519531 C 12.128906 7.183594 12.261719 6.769531 12.589844 6.597656 L 12.660156 6.5625 C 12.988281 6.390625 13.390625 6.523438 13.5625 6.859375 L 13.839844 7.417969 C 14.007812 7.753906 13.878906 8.164062 13.550781 8.335938 Z M 13.550781 8.335938 "/>
<path style=" stroke:none;fill-rule:nonzero;fill:rgb(34.509804%,36.862745%,38.431373%);fill-opacity:1;" d="M 12.941406 7.195312 C 12.730469 7.304688 12.476562 7.21875 12.367188 7.007812 L 11.785156 5.84375 L 12.542969 5.445312 L 13.125 6.609375 C 13.230469 6.824219 13.148438 7.085938 12.941406 7.195312 Z M 12.941406 7.195312 "/>
<path style=" stroke:none;fill-rule:nonzero;fill:rgb(81.176471%,81.176471%,81.176471%);fill-opacity:1;" d="M 13.003906 5.359375 C 13.003906 5.929688 12.546875 6.394531 11.988281 6.394531 C 11.425781 6.394531 10.972656 5.929688 10.972656 5.359375 C 10.972656 4.785156 11.425781 4.320312 11.988281 4.320312 C 12.546875 4.320312 13.003906 4.785156 13.003906 5.359375 Z M 13.003906 5.359375 "/>
<path style=" stroke:none;fill-rule:nonzero;fill:rgb(69.411765%,69.411765%,69.411765%);fill-opacity:1;" d="M 11.507812 4.449219 C 11.914062 4.21875 12.421875 4.304688 12.742188 4.652344 C 12.34375 4.671875 11.996094 4.921875 11.847656 5.296875 C 11.699219 5.671875 11.773438 6.097656 12.042969 6.394531 C 11.570312 6.417969 11.148438 6.105469 11.019531 5.640625 C 10.890625 5.175781 11.09375 4.683594 11.507812 4.449219 Z M 11.507812 4.449219 "/>
<path style=" stroke:none;fill-rule:nonzero;fill:rgb(34.509804%,36.862745%,38.431373%);fill-opacity:1;" d="M 3.367188 13 C 2.871094 13 2.460938 12.449219 2.34375 11.628906 C 2.285156 11.1875 2.316406 10.726562 2.433594 10.328125 C 2.5625 9.898438 2.777344 9.585938 3.046875 9.449219 C 3.144531 9.394531 3.253906 9.367188 3.367188 9.367188 L 4.769531 9.367188 L 4.769531 13 Z M 3.367188 13 "/>
<path style=" stroke:none;fill-rule:nonzero;fill:rgb(34.509804%,36.862745%,38.431373%);fill-opacity:1;" d="M 4.757812 13 C 4.46875 13 4.230469 12.449219 4.164062 11.628906 C 4.128906 11.1875 4.148438 10.726562 4.214844 10.328125 C 4.289062 9.898438 4.414062 9.585938 4.570312 9.449219 C 4.628906 9.394531 4.691406 9.367188 4.757812 9.367188 C 4.820312 9.367188 4.882812 9.394531 4.941406 9.445312 L 5.617188 10.054688 C 5.851562 10.265625 5.933594 10.9375 5.890625 11.464844 C 5.855469 11.867188 5.753906 12.183594 5.617188 12.308594 L 4.945312 12.914062 C 4.882812 12.972656 4.820312 13 4.757812 13 Z M 4.757812 13 "/>
<path style=" stroke:none;fill-rule:nonzero;fill:rgb(20.784314%,22.352941%,23.137255%);fill-opacity:1;" d="M 4.878906 9.664062 L 5.554688 10.269531 C 5.703125 10.40625 5.792969 10.925781 5.753906 11.429688 C 5.726562 11.765625 5.648438 12.007812 5.554688 12.09375 L 4.882812 12.699219 C 4.628906 12.925781 4.371094 12.433594 4.300781 11.59375 C 4.234375 10.753906 4.382812 9.890625 4.632812 9.664062 C 4.71875 9.589844 4.804688 9.59375 4.878906 9.664062 Z M 4.878906 9.664062 "/>
<path style=" stroke:none;fill-rule:nonzero;fill:rgb(34.509804%,36.862745%,38.431373%);fill-opacity:1;" d="M 11.515625 13 C 12.011719 13 12.421875 12.449219 12.539062 11.628906 C 12.601562 11.1875 12.570312 10.726562 12.449219 10.328125 C 12.324219 9.898438 12.105469 9.585938 11.835938 9.449219 C 11.738281 9.394531 11.628906 9.367188 11.515625 9.367188 L 10.113281 9.367188 L 10.113281 13 Z M 11.515625 13 "/>
<path style=" stroke:none;fill-rule:nonzero;fill:rgb(34.509804%,36.862745%,38.431373%);fill-opacity:1;" d="M 10.125 13 C 10.414062 13 10.652344 12.449219 10.71875 11.628906 C 10.753906 11.1875 10.738281 10.726562 10.667969 10.328125 C 10.59375 9.898438 10.46875 9.585938 10.3125 9.449219 C 10.253906 9.394531 10.191406 9.367188 10.125 9.367188 C 10.0625 9.367188 10 9.394531 9.941406 9.445312 L 9.269531 10.054688 C 9.03125 10.265625 8.949219 10.9375 8.992188 11.464844 C 9.027344 11.867188 9.128906 12.183594 9.265625 12.308594 L 9.941406 12.914062 C 10 12.972656 10.0625 13 10.125 13 Z M 10.125 13 "/>
<path style=" stroke:none;fill-rule:nonzero;fill:rgb(20.784314%,22.352941%,23.137255%);fill-opacity:1;" d="M 10.003906 9.664062 L 9.332031 10.269531 C 9.179688 10.40625 9.089844 10.925781 9.128906 11.429688 C 9.15625 11.765625 9.238281 12.007812 9.332031 12.09375 L 10.003906 12.699219 C 10.253906 12.925781 10.515625 12.429688 10.582031 11.59375 C 10.652344 10.753906 10.5 9.890625 10.25 9.664062 C 10.164062 9.589844 10.082031 9.59375 10.003906 9.664062 Z M 10.003906 9.664062 "/>
<path style=" stroke:none;fill-rule:nonzero;fill:rgb(81.176471%,81.176471%,81.176471%);fill-opacity:1;" d="M 11.488281 6.242188 C 11.429688 6.035156 11.425781 5.816406 11.480469 5.609375 C 11.679688 4.875 11.546875 4.066406 11.546875 4.066406 C 9.042969 3.265625 7.484375 4.058594 7.484375 4.058594 C 7.484375 4.058594 5.933594 3.261719 3.425781 4.054688 C 3.425781 4.054688 3.292969 4.863281 3.488281 5.597656 C 3.542969 5.804688 3.539062 6.023438 3.480469 6.230469 C 3.410156 6.472656 3.335938 6.84375 3.332031 7.316406 C 3.328125 10.761719 7.476562 11.824219 7.476562 11.824219 C 7.476562 11.824219 11.625 10.773438 11.628906 7.332031 C 11.628906 6.855469 11.554688 6.484375 11.488281 6.242188 Z M 11.488281 6.242188 "/>
<path style=" stroke:none;fill-rule:nonzero;fill:rgb(28.627451%,69.019608%,29.019608%);fill-opacity:1;" d="M 7.476562 11.183594 C 6.789062 10.964844 3.933594 9.894531 3.9375 7.320312 C 3.9375 6.910156 4.003906 6.59375 4.058594 6.402344 C 4.152344 6.085938 4.15625 5.753906 4.070312 5.433594 C 3.988281 5.121094 3.980469 4.785156 3.988281 4.53125 C 4.535156 4.390625 5.074219 4.320312 5.589844 4.320312 C 6.617188 4.320312 7.214844 4.609375 7.21875 4.613281 L 7.496094 4.753906 L 7.757812 4.613281 C 7.757812 4.613281 8.355469 4.324219 9.378906 4.328125 C 9.898438 4.328125 10.433594 4.398438 10.984375 4.542969 C 10.992188 4.792969 10.980469 5.132812 10.898438 5.445312 C 10.8125 5.761719 10.816406 6.097656 10.90625 6.414062 C 10.960938 6.605469 11.027344 6.921875 11.023438 7.332031 C 11.019531 9.917969 8.164062 10.96875 7.476562 11.183594 Z M 7.476562 11.183594 "/>
<path style=" stroke:none;fill-rule:nonzero;fill:rgb(20.784314%,22.352941%,23.137255%);fill-opacity:1;" d="M 8.257812 6.621094 C 8.261719 6.203125 7.945312 5.859375 7.539062 5.824219 C 7.132812 5.792969 6.773438 6.089844 6.710938 6.5 C 6.652344 6.910156 6.914062 7.300781 7.308594 7.394531 L 6.871094 9.265625 L 7.476562 9.441406 L 8.082031 9.265625 L 7.652344 7.394531 C 8.007812 7.3125 8.257812 6.992188 8.257812 6.621094 Z M 8.257812 6.621094 "/>
<path style=" stroke:none;fill-rule:nonzero;fill:rgb(28.627451%,69.019608%,29.019608%);fill-opacity:1;" d="M 6.160156 1.8125 C 5.703125 1.8125 5.335938 2.1875 5.335938 2.652344 L 6.980469 2.652344 C 6.980469 2.1875 6.613281 1.8125 6.160156 1.8125 Z M 6.160156 1.8125 "/>
<path style=" stroke:none;fill-rule:nonzero;fill:rgb(28.627451%,69.019608%,29.019608%);fill-opacity:1;" d="M 8.695312 1.8125 C 8.242188 1.8125 7.875 2.1875 7.875 2.652344 L 9.515625 2.652344 C 9.515625 2.1875 9.148438 1.8125 8.695312 1.8125 Z M 8.695312 1.8125 "/>
<path style=" stroke:none;fill-rule:nonzero;fill:rgb(28.627451%,69.019608%,29.019608%);fill-opacity:1;" d="M 6.695312 3.171875 C 6.695312 3.261719 6.628906 3.332031 6.542969 3.332031 C 6.457031 3.332031 6.386719 3.261719 6.386719 3.171875 C 6.386719 3.085938 6.457031 3.015625 6.542969 3.015625 C 6.628906 3.015625 6.695312 3.085938 6.695312 3.171875 Z M 6.695312 3.171875 "/>
<path style=" stroke:none;fill-rule:nonzero;fill:rgb(28.627451%,69.019608%,29.019608%);fill-opacity:1;" d="M 7.308594 3.171875 C 7.308594 3.261719 7.242188 3.332031 7.152344 3.332031 C 7.066406 3.332031 7 3.261719 7 3.171875 C 7 3.085938 7.066406 3.015625 7.152344 3.015625 C 7.242188 3.015625 7.308594 3.085938 7.308594 3.171875 Z M 7.308594 3.171875 "/>
<path style=" stroke:none;fill-rule:nonzero;fill:rgb(28.627451%,69.019608%,29.019608%);fill-opacity:1;" d="M 7.921875 3.171875 C 7.921875 3.261719 7.851562 3.332031 7.765625 3.332031 C 7.679688 3.332031 7.609375 3.261719 7.609375 3.171875 C 7.609375 3.085938 7.679688 3.015625 7.765625 3.015625 C 7.851562 3.015625 7.921875 3.085938 7.921875 3.171875 Z M 7.921875 3.171875 "/>
<path style=" stroke:none;fill-rule:nonzero;fill:rgb(28.627451%,69.019608%,29.019608%);fill-opacity:1;" d="M 8.535156 3.171875 C 8.535156 3.261719 8.464844 3.332031 8.378906 3.332031 C 8.292969 3.332031 8.222656 3.261719 8.222656 3.171875 C 8.222656 3.085938 8.292969 3.015625 8.378906 3.015625 C 8.464844 3.015625 8.535156 3.085938 8.535156 3.171875 Z M 8.535156 3.171875 "/>
</g>
</svg>
