<svg height="16" viewBox="0 0 42 42" width="16" xmlns="http://www.w3.org/2000/svg">
	<style id="current-color-scheme" type="text/css">
		.ColorScheme-Text {
		color:#232629;
		}
	</style>
	<path d="m32.66 29.319a1.432 1.432 0 0 0 -.66-.319h-1.5a8.125 8.125 0 0 0 1.5-5 11.027 11.027 0 0 0 -.5-3 2.519 2.519 0 0 1 0-1.5 12.987 12.987 0 0 0 .5-3.5c-6.681-1.955-11 0-11 0s-4.313-1.936-11 0a13.272 13.272 0 0 0 .5 3.5 2.519 2.519 0 0 1 0 1.5 11.1 11.1 0 0 0 -.5 3 8.035 8.035 0 0 0 1.5 5h-1.5a1.868 1.868 0 0 0 -.783.319 3.477 3.477 0 0 0 -1.636 2.157 7.058 7.058 0 0 0 -.234 3.18c.307 2.008 1.329 3.344 2.653 3.344h4a.379.379 0 0 0 .277-.187l1.793-1.483a3.263 3.263 0 0 0 .729-2.074 7.857 7.857 0 0 0 .027-.878 23.166 23.166 0 0 0 4.174 1.622 24.4 24.4 0 0 0 4.051-1.614 7.848 7.848 0 0 0 .027.869 3.263 3.263 0 0 0 .729 2.074l1.793 1.484a.61.61 0 0 0 .4.187h4c1.324 0 2.223-1.336 2.529-3.343a7.057 7.057 0 0 0 -.234-3.18 3.477 3.477 0 0 0 -1.635-2.158zm-17.069 6.5c-.019.009-.936.775-1.458 1.208a.418.418 0 0 1 -.627-.111 9.322 9.322 0 0 1 -.3-5.974 15.843 15.843 0 0 0 2.894 2.048c.051 1.03-.161 2.644-.509 2.834zm6.409-6.819h-2l.5-5a2 2 0 1 1 1 0zm6.38 7.921a.418.418 0 0 1 -.627.111c-.522-.433-1.439-1.2-1.458-1.208-.348-.189-.56-1.8-.505-2.828a15.84 15.84 0 0 0 2.9-2.037 9.322 9.322 0 0 1 -.31 5.962zm-20.924-11.162.744-1.366a1.579 1.579 0 0 0 -.019-1.557l.653-1.2c.2.014-.03-.113.165-.14.051-.217-.051-.336 0-.5a3.269 3.269 0 0 0 0-1.5 7.151 7.151 0 0 1 0-3 2.366 2.366 0 0 0 -2.378 1.448 2.409 2.409 0 0 0 .229 2.661l-.7 1.278a1.779 1.779 0 0 0 -1.317.891l-.741 1.372a1.577 1.577 0 0 0 -.019 1.487 3.028 3.028 0 0 0 -2.746 1.525 2.648 2.648 0 0 0 .044 2.631.748.748 0 0 0 .981.266.656.656 0 0 0 .284-.92 1.37 1.37 0 0 1 -.023-1.361 1.6 1.6 0 0 1 2.079-.63 1.408 1.408 0 0 1 .672 1.95 1.546 1.546 0 0 1 -1.2.78.688.688 0 0 0 -.636.749.707.707 0 0 0 .717.6.789.789 0 0 0 .082 0 2.989 2.989 0 0 0 2.322-1.513 2.669 2.669 0 0 0 -.377-3.084 1.767 1.767 0 0 0 1.184-.867zm33.217 1.2a3.021 3.021 0 0 0 -2.658-1.525 1.574 1.574 0 0 0 -.107-1.283l-.745-1.367a1.779 1.779 0 0 0 -1.317-.891l-.7-1.278a2.409 2.409 0 0 0 .229-2.661 2.283 2.283 0 0 0 -2.375-1.454 7.039 7.039 0 0 1 0 3 3.272 3.272 0 0 0 0 1.5c.047.152-.047.3 0 .5.227.04-.069.156.165.14l.653 1.2a1.579 1.579 0 0 0 -.019 1.557l.745 1.367a1.753 1.753 0 0 0 1.045.832 2.66 2.66 0 0 0 -.238 2.916 2.989 2.989 0 0 0 2.326 1.509.79.79 0 0 0 .082 0 .707.707 0 0 0 .717-.6.688.688 0 0 0 -.636-.749 1.546 1.546 0 0 1 -1.2-.78 1.408 1.408 0 0 1 .672-1.95 1.628 1.628 0 0 1 1.179-.089 1.512 1.512 0 0 1 .9.719 1.37 1.37 0 0 1 -.023 1.361.656.656 0 0 0 .284.92.748.748 0 0 0 .981-.266 2.648 2.648 0 0 0 .04-2.633zm-19.673-11.959a13.013 13.013 0 0 1 5-1 21.6 21.6 0 0 1 4.5.5 9.312 9.312 0 0 0 -9.5-8.5c-5.794 0-9.176 4-9.5 8.5a21.858 21.858 0 0 1 4.5-.5 12.819 12.819 0 0 1 5 1zm3.5-5c1.209 0 2.5.866 2.5 2h-5c0-1.134 1.291-2 2.5-2zm-7 0c1.209 0 2.5.866 2.5 2h-5c0-1.134 1.291-2 2.5-2z" fill-rule="evenodd" style="fill:#f2f2f2;fill-opacity:1" class="ColorScheme-Text" fill="currentColor"/>
</svg>